<?xml version="1.0" standalone="no"?>
<!DOCTYPE svg PUBLIC "-//W3C//DTD SVG 20010904//EN"
 "http://www.w3.org/TR/2001/REC-SVG-20010904/DTD/svg10.dtd">
<svg version="1.0" xmlns="http://www.w3.org/2000/svg"
 width="300.000000pt" height="298.000000pt" viewBox="0 0 300.000000 298.000000"
 preserveAspectRatio="xMidYMid meet">

<g transform="translate(0.000000,298.000000) scale(0.100000,-0.100000)"
fill="#000000" stroke="none">
<path d="M1320 2970 c-507 -70 -929 -366 -1155 -812 -118 -232 -160 -413 -159
-683 0 -194 17 -305 70 -465 139 -416 474 -768 882 -925 76 -29 276 -85 305
-85 4 0 6 235 5 523 l-3 522 -187 3 -188 2 0 215 0 215 188 2 187 3 6 245 c5
221 7 251 28 310 56 161 162 268 318 322 63 21 83 23 263 22 107 -1 215 -5
240 -10 l45 -10 3 -180 2 -181 -132 -5 c-144 -5 -191 -18 -240 -65 -52 -49
-63 -100 -63 -283 l0 -165 208 -3 207 -2 -6 -38 c-3 -20 -18 -116 -32 -212
l-27 -175 -175 -5 -175 -5 -3 -514 c-1 -283 1 -518 6 -523 8 -8 141 21 242 54
306 99 606 336 792 624 48 74 118 224 149 316 94 279 102 611 23 885 -158 544
-591 946 -1149 1063 -114 24 -369 35 -475 20z"/>
</g>
</svg>
